<?xml version="1.0" encoding="UTF-8"?>
<svg version="1.1" xmlns="http://www.w3.org/2000/svg" width="512" height="512">
<path d="M0 0 C2.10052024 1.94050688 4.17925573 3.90277572 6.25 5.875 C7.148396 6.73037354 7.148396 6.73037354 8.06494141 7.60302734 C16.95711736 16.13263199 24.95107735 24.95070671 32.25 34.875 C32.88929443 35.73109863 32.88929443 35.73109863 33.54150391 36.60449219 C40.05799189 45.34738527 45.83579021 54.41451241 51.25 63.875 C51.90613281 64.99777344 52.56226563 66.12054688 53.23828125 67.27734375 C67.46304627 92.61966058 76.10098331 121.20513238 80.25 149.875 C80.36714355 150.67228516 80.48428711 151.46957031 80.60498047 152.29101562 C89.58940847 216.53034334 71.41492635 281.92470101 33.25 333.875 C27.07292336 341.96477549 20.26557429 349.50897149 13.25 356.875 C12.39462646 357.773396 12.39462646 357.773396 11.52197266 358.68994141 C2.99236801 367.58211736 -5.82570671 375.57607735 -15.75 382.875 C-16.60609863 383.51429443 -16.60609863 383.51429443 -17.47949219 384.16650391 C-26.22238527 390.68299189 -35.28951241 396.46079021 -44.75 401.875 C-45.87277344 402.53113281 -46.99554688 403.18726563 -48.15234375 403.86328125 C-73.49466058 418.08804627 -102.08013238 426.72598331 -130.75 430.875 C-131.54728516 430.99214355 -132.34457031 431.10928711 -133.16601562 431.22998047 C-185.10661612 438.49432464 -243.8507196 428.82575668 -288.5534668 400.52929688 C-291.33796173 398.84113357 -293.29856722 397.87126915 -296.5859375 397.8984375 C-300.98480491 399.25611263 -305.22875833 400.91236521 -309.5 402.625 C-324.96009518 408.6446577 -340.31771313 412.62198271 -356.75 414.875 C-357.68585938 415.00777344 -358.62171875 415.14054687 -359.5859375 415.27734375 C-365.92676141 416.00743862 -372.31170321 416.00482731 -378.6875 416.0625 C-379.61280518 416.07563232 -380.53811035 416.08876465 -381.49145508 416.10229492 C-382.36954834 416.10334229 -383.2476416 416.10438965 -384.15234375 416.10546875 C-384.94116943 416.10957764 -385.72999512 416.11368652 -386.54272461 416.11791992 C-389.06738066 415.84007093 -390.63664157 415.28206859 -392.75 413.875 C-393.82306605 410.6518422 -394.41930043 408.29027115 -392.91455078 405.10839844 C-391.633302 403.23665196 -390.25807455 401.4978669 -388.8125 399.75 C-387.78037588 398.41935736 -386.75176503 397.08598271 -385.7265625 395.75 C-385.21641602 395.09257812 -384.70626953 394.43515625 -384.18066406 393.7578125 C-374.82146546 381.44072383 -359.29980466 357.35942228 -359.83203125 341.41796875 C-361.11891445 337.85302848 -363.31271962 335.13705398 -365.625 332.1875 C-371.9815619 323.7879813 -377.47960808 314.98838603 -382.75 305.875 C-383.34941406 304.84318604 -383.34941406 304.84318604 -383.9609375 303.79052734 C-398.68912384 278.12122607 -407.52495443 249.07023013 -411.75 219.875 C-411.86714355 219.07771484 -411.98428711 218.28042969 -412.10498047 217.45898438 C-421.08940847 153.21965666 -402.91492635 87.82529899 -364.75 35.875 C-358.57292336 27.78522451 -351.76557429 20.24102851 -344.75 12.875 C-344.17975098 12.27606934 -343.60950195 11.67713867 -343.02197266 11.06005859 C-334.49236801 2.16788264 -325.67429329 -5.82607735 -315.75 -13.125 C-315.17926758 -13.55119629 -314.60853516 -13.97739258 -314.02050781 -14.41650391 C-305.27761473 -20.93299189 -296.21048759 -26.71079021 -286.75 -32.125 C-285.62722656 -32.78113281 -284.50445312 -33.43726562 -283.34765625 -34.11328125 C-258.00533942 -48.33804627 -229.41986762 -56.97598331 -200.75 -61.125 C-199.95271484 -61.24214355 -199.15542969 -61.35928711 -198.33398438 -61.47998047 C-126.89221899 -71.47173195 -53.34144633 -48.09242103 0 0 Z " fill="#3E9DDD" transform="translate(421.75,71.125)"/>
<path d="M0 0 C4.455825 2.69863164 6.95688212 5.56827141 8.75 10.5 C9.35408812 16.18361678 9.22317143 21.79464843 9.0625 27.5 C9.03738325 29.05334949 9.01457603 30.60673813 8.99414062 32.16015625 C8.93941589 35.94108146 8.85333666 39.72010379 8.75 43.5 C9.63860718 43.68067017 9.63860718 43.68067017 10.54516602 43.86499023 C22.37674134 46.36390574 31.50640162 51.82317455 39.23046875 61.3203125 C41.30281627 64.53731407 41.98271705 67.49102745 42.33984375 71.21875 C42.45960571 72.4243457 42.45960571 72.4243457 42.58178711 73.65429688 C42.66505249 74.56791992 42.66505249 74.56791992 42.75 75.5 C43.48412109 75.48428955 44.21824219 75.4685791 44.97460938 75.45239258 C74.52631611 74.90419639 98.05926236 78.62237187 120.13574219 99.54394531 C125.36273838 104.64930025 130.10444836 110.1420584 133.75 116.5 C133.75 117.16 133.75 117.82 133.75 118.5 C135.00554687 118.45359375 136.26109375 118.4071875 137.5546875 118.359375 C155.13500966 117.89927667 155.13500966 117.89927667 162.75 122.5 C163.45125 122.90089844 164.1525 123.30179687 164.875 123.71484375 C171.98496229 128.36055775 177.09102072 136.00599463 179.33111572 144.17704773 C180.30207718 149.56158291 180.09866837 155.0888438 180.12109375 160.54296875 C180.13007976 161.91669298 180.13920189 163.29041632 180.14845276 164.66413879 C180.16488639 167.53791669 180.17263206 170.41157891 180.17553711 173.28540039 C180.18090386 176.93559953 180.21853516 180.58468309 180.26428127 184.2345686 C180.29429591 187.07194298 180.30126594 189.90905712 180.30226326 192.74657631 C180.30841765 194.73604303 180.33775937 196.7253957 180.36778259 198.71464539 C180.30685159 211.12402312 176.72785297 220.50135719 168.078125 229.4375 C161.0873684 235.6306535 153.00089715 237.5178963 143.83618164 237.47949219 C137.18973667 237.41748046 137.18973667 237.41748046 131.4765625 240.43359375 C129.73749654 243.05035732 128.26048804 245.74602938 126.75 248.5 C112.77097082 266.60669527 91.96579498 277.05187609 69.57775879 280.09685516 C63.31422032 280.75653968 57.08983011 280.77821355 50.796875 280.75878906 C49.3594139 280.76150794 47.9219542 280.76507385 46.48449707 280.76940918 C42.62496947 280.77842895 38.76555031 280.77503254 34.90602112 280.76865101 C30.83936298 280.76353645 26.77271324 280.76829745 22.70605469 280.77142334 C15.88084267 280.77504725 9.05567414 280.77030548 2.23046875 280.76074219 C-5.62553519 280.74986069 -13.48143525 280.75338739 -21.33743668 280.764395 C-28.1200562 280.77351301 -34.90264472 280.77473121 -41.6852684 280.76951766 C-45.71976164 280.76642264 -49.7542063 280.76591982 -53.78869629 280.77259064 C-57.58424161 280.77842965 -61.37965489 280.77424934 -65.17518616 280.76280212 C-67.2072431 280.7589586 -69.23931141 280.76478479 -71.2713623 280.77105713 C-97.63809877 280.65155365 -119.97479032 272.82599036 -138.75390625 253.98828125 C-144.74374444 247.54451792 -144.74374444 247.54451792 -146.24243164 244.45239258 C-147.40364507 242.13849076 -148.44311522 240.36169613 -150.25 238.5 C-153.79041228 237.34782375 -157.23615324 237.34856109 -160.9375 237.3125 C-172.11339285 236.74774864 -179.90251436 234.91847502 -187.71875 226.45703125 C-193.11710939 219.55759743 -196.47781682 212.03395618 -196.54052734 203.21020508 C-196.55328705 201.9848555 -196.56604675 200.75950592 -196.57919312 199.49702454 C-196.58141876 198.18445175 -196.58364441 196.87187897 -196.5859375 195.51953125 C-196.5923755 194.14198167 -196.59910459 192.76443341 -196.60610962 191.3868866 C-196.61805608 188.50292803 -196.6217934 185.61908897 -196.62060547 182.73510742 C-196.62040295 179.06812061 -196.64764595 175.40191465 -196.68214989 171.73511219 C-196.7045689 168.88920182 -196.7084384 166.04347453 -196.70738602 163.19748497 C-196.71084587 161.19750073 -196.7324199 159.19757363 -196.75448608 157.19770813 C-196.69456594 145.11183456 -193.90701793 135.2420574 -185.25 126.5 C-177.18536595 119.84846112 -169.57937775 118.1720047 -159.3125 118.375 C-158.00055664 118.38853516 -158.00055664 118.38853516 -156.66210938 118.40234375 C-154.52461936 118.4257043 -152.38727214 118.46156753 -150.25 118.5 C-149.98058594 117.76007813 -149.71117187 117.02015625 -149.43359375 116.2578125 C-141.91693729 98.74375487 -122.90196629 87.08032203 -106.1875 79.7890625 C-95.23285036 75.89018233 -84.41103287 75.08342399 -72.875 75.3125 C-71.54168216 75.32760704 -70.20834733 75.34128458 -68.875 75.35351562 C-65.66621435 75.38839373 -62.4583437 75.43739974 -59.25 75.5 C-59.2075415 74.90396973 -59.16508301 74.30793945 -59.12133789 73.69384766 C-58.36075289 65.03285086 -54.91205649 59.78454739 -48.625 53.8125 C-41.64619156 48.06603393 -34.17201792 44.65135546 -25.25 43.5 C-25.27618408 42.54222656 -25.30236816 41.58445313 -25.3293457 40.59765625 C-25.42049127 37.01212326 -25.47747921 33.42669058 -25.5246582 29.84033203 C-25.54965732 28.29425788 -25.58366902 26.74830018 -25.62719727 25.20263672 C-26.05205854 9.71769279 -26.05205854 9.71769279 -21.65014648 3.89648438 C-15.47442731 -2.26308209 -8.03713213 -3.39042862 0 0 Z " fill="#D6E0E4" transform="translate(264.25,95.5)"/>
<path d="M0 0 C1.37557663 -0.00271333 2.7511518 -0.00627618 4.12672424 -0.01062012 C7.84790623 -0.01970746 11.56897682 -0.01621455 15.29016066 -0.00986195 C19.19504047 -0.00478094 23.09991105 -0.00949942 27.00479126 -0.01263428 C33.56327009 -0.01626867 40.12170381 -0.01148956 46.68017578 -0.00195312 C54.2458675 0.00892134 61.81145132 0.00541107 69.3771404 -0.00560594 C75.88778107 -0.01470469 82.3983894 -0.01595119 88.90903437 -0.0107286 C92.79088966 -0.00762193 96.67269438 -0.00716335 100.55454636 -0.01380157 C104.20717053 -0.01961183 107.85965676 -0.01551137 111.51226616 -0.00401306 C113.47974843 -0.00013984 115.44724246 -0.0060213 117.41471863 -0.01226807 C132.64482119 0.05999232 145.92275815 3.94371943 157.40478516 14.25878906 C158.54753906 15.26232422 158.54753906 15.26232422 159.71337891 16.28613281 C165.7044279 21.87306383 169.79404314 27.92505399 173.40478516 35.25878906 C173.84048828 36.12503906 174.27619141 36.99128906 174.72509766 37.88378906 C179.92213603 50.38575551 179.4265142 67.88091965 174.65087891 80.48925781 C174.23966797 81.40320313 173.82845703 82.31714844 173.40478516 83.25878906 C173.00388672 84.18304688 172.60298828 85.10730469 172.18994141 86.05957031 C165.51746616 99.73330943 154.08953736 110.21367868 139.86572266 115.59863281 C133.18429431 117.71768627 126.80999986 119.37503147 119.77932739 119.40596008 C118.09766731 119.41669304 118.09766731 119.41669304 116.3820343 119.42764282 C115.16122665 119.43033173 113.94041901 119.43302063 112.68261719 119.43579102 C111.38924942 119.44236221 110.09588165 119.44893341 108.76332092 119.45570374 C104.47975898 119.47668607 100.19619696 119.48710627 95.91259766 119.49707031 C94.43170021 119.50112119 92.95080294 119.5052382 91.46990585 119.50942039 C84.50470071 119.52846572 77.53950606 119.54269354 70.5742799 119.55103236 C62.56848293 119.56077799 54.56296442 119.58702979 46.5572654 119.62753326 C40.34891136 119.65785037 34.14063638 119.67251622 27.93220985 119.67581338 C24.23446702 119.67814774 20.53702181 119.68689345 16.83935928 119.71227455 C-7.05662328 119.86765505 -26.11035724 118.96009773 -44.34912109 101.62597656 C-57.62207959 87.63743247 -61.2061713 71.76096001 -60.93505859 53.09082031 C-60.47677282 41.2495525 -55.4341027 31.76612148 -48.59521484 22.25878906 C-47.85271484 21.20691406 -47.11021484 20.15503906 -46.34521484 19.07128906 C-33.2856773 5.71494385 -18.25100016 -0.05776383 0 0 Z " fill="#203B51" transform="translate(197.59521484375,213.7412109375)"/>
<path d="M0 0 C4.455825 2.69863164 6.95688212 5.56827141 8.75 10.5 C9.35408812 16.18361678 9.22317143 21.79464843 9.0625 27.5 C9.03738325 29.05334949 9.01457603 30.60673813 8.99414062 32.16015625 C8.93941589 35.94108146 8.85333666 39.72010379 8.75 43.5 C9.63860718 43.68067017 9.63860718 43.68067017 10.54516602 43.86499023 C22.37674134 46.36390574 31.50640162 51.82317455 39.23046875 61.3203125 C42.31792785 66.11311904 42.07050973 69.38458761 42.75 75.5 C9.09 75.5 -24.57 75.5 -59.25 75.5 C-58.04582387 64.66241483 -54.91750684 58.993854 -46.58984375 52.13671875 C-39.836538 47.41278701 -33.40883114 44.55286885 -25.25 43.5 C-25.27618408 42.54222656 -25.30236816 41.58445313 -25.3293457 40.59765625 C-25.42049127 37.01212326 -25.47747921 33.42669058 -25.5246582 29.84033203 C-25.54965732 28.29425788 -25.58366902 26.74830018 -25.62719727 25.20263672 C-26.05205854 9.71769279 -26.05205854 9.71769279 -21.65014648 3.89648438 C-15.47442731 -2.26308209 -8.03713213 -3.39042862 0 0 Z " fill="#BCCBD1" transform="translate(264.25,95.5)"/>
<path d="M0 0 C1.24040039 0.01353516 1.24040039 0.01353516 2.50585938 0.02734375 C4.52486708 0.05068488 6.54372356 0.08654712 8.5625 0.125 C7.4403233 3.62619132 6.23728805 6.94772327 4.625 10.25 C-0.38539643 21.31774137 -1.58892004 32.97511227 -1.640625 44.96484375 C-1.64917511 46.52447594 -1.64917511 46.52447594 -1.65789795 48.11561584 C-1.66731728 50.3134765 -1.67386969 52.51135108 -1.67773438 54.70922852 C-1.687378 58.02060667 -1.7184057 61.33134696 -1.75 64.64257812 C-1.84855483 84.18438272 0.4664991 101.51471919 9.5625 119.125 C-4.68356048 119.46690545 -15.37318803 119.29564741 -26.37890625 109.375 C-35.39772318 100.0250386 -37.19623514 89.10850633 -37.06640625 76.55859375 C-37.06723794 75.18961906 -37.06970859 73.8206445 -37.07371521 72.45167542 C-37.07655027 69.60329598 -37.06209943 66.75571286 -37.03442383 63.9074707 C-37.00031071 60.28761035 -37.00639129 56.66916788 -37.0250864 53.04923916 C-37.03573915 50.22899401 -37.02664507 47.40906931 -37.01170158 44.58885384 C-37.00412482 42.61551829 -37.0113113 40.64214334 -37.01893616 38.66880798 C-36.86343124 26.6718877 -34.0297324 16.80163546 -25.4375 8.125 C-17.54981573 1.61940554 -10.06310181 -0.2108305 0 0 Z " fill="#BCCBD1" transform="translate(104.4375,213.875)"/>
<path d="M0 0 C19.94948971 -0.78233293 19.94948971 -0.78233293 28 4 C28.70253906 4.40089844 29.40507812 4.80179688 30.12890625 5.21484375 C37.23481359 9.86671857 42.34071052 17.50486313 44.58111572 25.67704773 C45.55207718 31.06158291 45.34866837 36.5888438 45.37109375 42.04296875 C45.38007976 43.41669298 45.38920189 44.79041632 45.39845276 46.16413879 C45.41488639 49.03791669 45.42263206 51.91157891 45.42553711 54.78540039 C45.43090386 58.43559953 45.46853516 62.08468309 45.51428127 65.7345686 C45.54429591 68.57194298 45.55126594 71.40905712 45.55226326 74.24657631 C45.55841765 76.23604303 45.58775937 78.2253957 45.61778259 80.21464539 C45.55685159 92.62402312 41.97785297 102.00135719 33.328125 110.9375 C30.10602639 113.79197663 27.05186096 115.59208064 23 117 C21.845 117.4125 20.69 117.825 19.5 118.25 C12.87855119 119.77186525 5.74723614 119.14739108 -1 119 C-0.52949219 117.98421875 -0.05898438 116.9684375 0.42578125 115.921875 C6.90372699 101.69433536 10.13751611 88.51951275 10.203125 72.87109375 C10.20882507 71.80439957 10.21452515 70.73770538 10.22039795 69.63868713 C10.22981695 67.38535544 10.23636956 65.13201017 10.24023438 62.87866211 C10.24989956 59.47289226 10.28093673 56.06773686 10.3125 52.66210938 C10.3671266 41.36771031 10.19256269 30.91328139 7 20 C6.74549072 19.04343506 6.49098145 18.08687012 6.22875977 17.10131836 C4.76845566 11.67373882 2.57939945 6.98090929 0 2 C0 1.34 0 0.68 0 0 Z " fill="#BCCBD1" transform="translate(399,214)"/>
<path d="M0 0 C4.455825 2.69863164 6.95688212 5.56827141 8.75 10.5 C9.35408812 16.18361678 9.22317143 21.79464843 9.0625 27.5 C9.03738325 29.05334949 9.01457603 30.60673813 8.99414062 32.16015625 C8.93941589 35.94108146 8.85333666 39.72010379 8.75 43.5 C8.02925293 43.33773926 7.30850586 43.17547852 6.56591797 43.00830078 C3.87014321 42.52168703 1.42981151 42.3708121 -1.3046875 42.3671875 C-2.72201172 42.36525391 -2.72201172 42.36525391 -4.16796875 42.36328125 C-5.63169922 42.36908203 -5.63169922 42.36908203 -7.125 42.375 C-8.09308594 42.37113281 -9.06117188 42.36726563 -10.05859375 42.36328125 C-11.00605469 42.36457031 -11.95351562 42.36585938 -12.9296875 42.3671875 C-14.20948486 42.36887939 -14.20948486 42.36887939 -15.51513672 42.37060547 C-18.80201447 42.52611745 -22.00017379 42.99551796 -25.25 43.5 C-25.37447553 38.94687658 -25.46474409 34.39476346 -25.5246582 29.84033203 C-25.54965732 28.29425788 -25.58366902 26.74830018 -25.62719727 25.20263672 C-26.05205854 9.71769279 -26.05205854 9.71769279 -21.65014648 3.89648438 C-15.47442731 -2.26308209 -8.03713213 -3.39042862 0 0 Z " fill="#ACBEC4" transform="translate(264.25,95.5)"/>
<path d="M0 0 C4.48741845 2.48615324 7.11474899 5.40674698 8.75 10.3125 C9.28422104 16.28139281 9.28306722 21.24843698 5.75 26.3125 C1.60626762 30.47887572 -2.04544184 32.44700783 -7.9375 32.6875 C-13.48457152 32.60652085 -17.22120271 31.14635548 -21.25 27.3125 C-25.06372837 22.25984857 -26.03816779 17.51932134 -25.25 11.3125 C-23.2574033 5.9168168 -19.83864717 2.63194689 -15.25 -0.6875 C-9.81939165 -2.49770278 -5.15256228 -2.38847747 0 0 Z " fill="#3D9BDA" transform="translate(332.25,257.6875)"/>
<path d="M0 0 C5.10993224 2.21581132 8.92291065 5.32282418 12 10 C13.6270583 14.8811749 13.41143185 18.74405013 11.8125 23.625 C9.49678021 27.93702995 7.02018843 30.78788694 2.8125 33.3125 C-2.90680394 34.71055208 -8.04840109 34.97579945 -13.375 32.3125 C-17.52843673 28.65352002 -20.63234333 25.44753472 -21.23828125 19.765625 C-21.41190353 13.88074344 -21.04420442 9.4884973 -17 5 C-11.935113 0.49533752 -6.72818339 -1.46775379 0 0 Z " fill="#3D9BDA" transform="translate(192,256)"/>
<path d="M0 0 C2.13671875 1.57421875 2.13671875 1.57421875 4.375 3.5 C8.28482596 6.78372095 10.8186758 7.92782035 15.92578125 7.5 C19.93317229 6.5339999 22.84884701 4.40140364 25.4375 1.25 C27 0 27 0 30.375 -0.4375 C34.65406343 0.07893869 36.25493707 0.672651 39 4 C39.84432752 8.2216376 39.92698732 10.39696142 37.7734375 14.12109375 C32.5423625 20.67853137 26.50090414 24.44252761 18.15234375 25.4765625 C8.60984948 26.00204521 1.24019491 24.44421594 -6.16015625 18.16796875 C-9.33296279 14.96993114 -11.42221652 12.34539447 -11.6875 7.75 C-11 4 -11 4 -9.4375 1.5 C-5.87461571 -0.69254418 -4.14195143 -0.74690927 0 0 Z " fill="#3D9BDA" transform="translate(242,282)"/>
</svg>
